<svg width="129" height="24" viewBox="0 0 129 24" fill="none" xmlns="http://www.w3.org/2000/svg">
<ellipse cx="17.5" cy="11.5" rx="3.5" ry="2.5" fill="#FF9900"/>
<ellipse cx="73.5" cy="15.5" rx="3.5" ry="2.5" fill="#FF9900"/>
<path d="M119.5 15.5C119.5 17.0962 117.998 18.5 116 18.5C114.002 18.5 112.5 17.0962 112.5 15.5C112.5 13.9038 114.002 12.5 116 12.5C117.998 12.5 119.5 13.9038 119.5 15.5Z" fill="#FF9900" stroke="white"/>
<path d="M128.5 15.5C128.5 17.0962 126.998 18.5 125 18.5C123.002 18.5 121.5 17.0962 121.5 15.5C121.5 13.9038 123.002 12.5 125 12.5C126.998 12.5 128.5 13.9038 128.5 15.5Z" fill="#FF9900" stroke="white"/>
<path d="M1.59801 19V4.45455H3.79261V17.1108H10.3835V19H1.59801ZM17.4183 19.2202C16.3435 19.2202 15.4179 18.9905 14.6413 18.5312C13.8696 18.0672 13.273 17.4162 12.8516 16.5781C12.4349 15.7353 12.2266 14.7481 12.2266 13.6165C12.2266 12.4991 12.4349 11.5142 12.8516 10.6619C13.273 9.80966 13.8601 9.14441 14.6129 8.66619C15.3705 8.18797 16.2559 7.94886 17.2692 7.94886C17.8847 7.94886 18.4813 8.05066 19.0589 8.25426C19.6366 8.45786 20.1551 8.77746 20.6143 9.21307C21.0736 9.64867 21.4358 10.2145 21.701 10.9105C21.9661 11.6018 22.0987 12.4422 22.0987 13.4318V14.1847H13.4268V12.5938H20.0178C20.0178 12.035 19.9041 11.5402 19.6768 11.1094C19.4496 10.6738 19.13 10.3305 18.718 10.0795C18.3108 9.8286 17.8326 9.70312 17.2834 9.70312C16.6868 9.70312 16.166 9.84991 15.7209 10.1435C15.2805 10.4323 14.9396 10.8111 14.6982 11.2798C14.4614 11.7438 14.343 12.2481 14.343 12.7926V14.0355C14.343 14.7647 14.4709 15.3849 14.7266 15.8963C14.987 16.4077 15.3492 16.7983 15.8132 17.0682C16.2772 17.3333 16.8194 17.4659 17.4396 17.4659C17.8421 17.4659 18.209 17.4091 18.5405 17.2955C18.8719 17.1771 19.1584 17.0019 19.3999 16.7699C19.6413 16.5379 19.826 16.2514 19.9538 15.9105L21.9638 16.2727C21.8028 16.8646 21.514 17.383 21.0973 17.8281C20.6854 18.2685 20.1669 18.6117 19.5419 18.858C18.9216 19.0994 18.2138 19.2202 17.4183 19.2202ZM29.5472 8.09091V9.79545H23.5884V8.09091H29.5472ZM25.1864 5.47727H27.31V15.7969C27.31 16.2088 27.3716 16.5189 27.4947 16.7273C27.6178 16.9309 27.7764 17.0705 27.9705 17.1463C28.1694 17.2173 28.3848 17.2528 28.6168 17.2528C28.7873 17.2528 28.9364 17.241 29.0643 17.2173C29.1921 17.1937 29.2915 17.1747 29.3626 17.1605L29.7461 18.9148C29.623 18.9621 29.4478 19.0095 29.2205 19.0568C28.9933 19.1089 28.7092 19.1373 28.3683 19.142C27.8095 19.1515 27.2887 19.0521 26.8058 18.8438C26.3228 18.6354 25.9322 18.3134 25.6339 17.8778C25.3356 17.4422 25.1864 16.8954 25.1864 16.2372V5.47727ZM34.2685 4.45455V5.81818C34.2685 6.22064 34.1927 6.64441 34.0412 7.08949C33.8944 7.52983 33.6861 7.9536 33.4162 8.3608C33.1463 8.76799 32.8291 9.11837 32.4645 9.41193L31.4134 8.65909C31.6927 8.25189 31.9342 7.81866 32.1378 7.35938C32.3461 6.90009 32.4503 6.39347 32.4503 5.83949V4.45455H34.2685ZM43.1179 10.7543L41.1932 11.0952C41.1127 10.849 40.9848 10.6146 40.8097 10.392C40.6392 10.1695 40.4072 9.98722 40.1136 9.84517C39.8201 9.70312 39.4531 9.6321 39.0128 9.6321C38.4115 9.6321 37.9096 9.76705 37.5071 10.0369C37.1046 10.3021 36.9034 10.6454 36.9034 11.0668C36.9034 11.4313 37.0384 11.7249 37.3082 11.9474C37.5781 12.17 38.0137 12.3523 38.6151 12.4943L40.348 12.892C41.3518 13.1241 42.0999 13.4815 42.5923 13.9645C43.0848 14.4474 43.331 15.0748 43.331 15.8466C43.331 16.5 43.1416 17.0824 42.7628 17.5938C42.3887 18.1004 41.8655 18.4981 41.1932 18.7869C40.5256 19.0758 39.7514 19.2202 38.8707 19.2202C37.6491 19.2202 36.6525 18.9598 35.8807 18.4389C35.1089 17.9134 34.6354 17.1676 34.4602 16.2017L36.5128 15.8892C36.6406 16.4242 36.9034 16.8291 37.3011 17.1037C37.6989 17.3736 38.2173 17.5085 38.8565 17.5085C39.5526 17.5085 40.1089 17.3641 40.5256 17.0753C40.9422 16.7817 41.1506 16.4242 41.1506 16.0028C41.1506 15.6619 41.0227 15.3755 40.767 15.1435C40.5161 14.9115 40.1302 14.7363 39.6094 14.6179L37.7628 14.2131C36.7448 13.9811 35.992 13.6117 35.5043 13.1051C35.0213 12.5985 34.7798 11.9569 34.7798 11.1804C34.7798 10.5365 34.9598 9.97301 35.3196 9.49006C35.6795 9.0071 36.1766 8.63068 36.8111 8.3608C37.4455 8.08617 38.1723 7.94886 38.9915 7.94886C40.1705 7.94886 41.0985 8.20455 41.7756 8.71591C42.4527 9.22254 42.9001 9.90199 43.1179 10.7543ZM53.9773 19L49.9432 4.45455H52.2514L55.0852 15.7188H55.2202L58.1676 4.45455H60.4545L63.402 15.7259H63.5369L66.3636 4.45455H68.679L64.6378 19H62.429L59.3679 8.10511H59.2543L56.1932 19H53.9773ZM72.6101 19.2415C71.9188 19.2415 71.2938 19.1136 70.7351 18.858C70.1764 18.5975 69.7337 18.2211 69.407 17.7287C69.085 17.2363 68.924 16.6326 68.924 15.9176C68.924 15.3021 69.0424 14.7955 69.2791 14.3977C69.5159 14 69.8355 13.6851 70.2379 13.4531C70.6404 13.2211 71.0902 13.0459 71.5874 12.9276C72.0845 12.8092 72.5911 12.7192 73.1072 12.6577C73.7607 12.5819 74.291 12.5204 74.6982 12.473C75.1054 12.4209 75.4013 12.3381 75.5859 12.2244C75.7706 12.1108 75.8629 11.9261 75.8629 11.6705V11.6207C75.8629 11.0005 75.6877 10.5199 75.3374 10.179C74.9917 9.83807 74.4756 9.66761 73.7891 9.66761C73.0741 9.66761 72.5107 9.82623 72.0987 10.1435C71.6915 10.456 71.4098 10.804 71.2536 11.1875L69.2578 10.733C69.4946 10.0701 69.8402 9.53504 70.2947 9.12784C70.754 8.71591 71.282 8.41761 71.8786 8.23295C72.4751 8.04356 73.1025 7.94886 73.7607 7.94886C74.1963 7.94886 74.6579 8.00095 75.1456 8.10511C75.638 8.20455 76.0973 8.3892 76.5234 8.65909C76.9543 8.92898 77.3071 9.31487 77.5817 9.81676C77.8563 10.3139 77.9936 10.9602 77.9936 11.7557V19H75.9197V17.5085H75.8345C75.6972 17.7831 75.4912 18.053 75.2166 18.3182C74.942 18.5833 74.5893 18.8035 74.1584 18.9787C73.7275 19.1539 73.2114 19.2415 72.6101 19.2415ZM73.0717 17.5369C73.6589 17.5369 74.1607 17.4209 74.5774 17.1889C74.9988 16.9569 75.3184 16.6539 75.5362 16.2798C75.7588 15.901 75.87 15.4962 75.87 15.0653V13.6591C75.7943 13.7348 75.6475 13.8059 75.4297 13.8722C75.2166 13.9337 74.9728 13.9882 74.6982 14.0355C74.4235 14.0781 74.156 14.1184 73.8956 14.1562C73.6352 14.1894 73.4174 14.2178 73.2422 14.2415C72.8303 14.2936 72.4538 14.3812 72.1129 14.5043C71.7768 14.6274 71.5069 14.8049 71.3033 15.0369C71.1044 15.2642 71.005 15.5672 71.005 15.946C71.005 16.4716 71.1991 16.8693 71.5874 17.1392C71.9756 17.4044 72.4704 17.5369 73.0717 17.5369ZM85.9144 8.09091V9.79545H79.9556V8.09091H85.9144ZM81.5536 5.47727H83.6772V15.7969C83.6772 16.2088 83.7388 16.5189 83.8619 16.7273C83.985 16.9309 84.1436 17.0705 84.3377 17.1463C84.5366 17.2173 84.752 17.2528 84.984 17.2528C85.1545 17.2528 85.3036 17.241 85.4315 17.2173C85.5593 17.1937 85.6587 17.1747 85.7298 17.1605L86.1133 18.9148C85.9902 18.9621 85.815 19.0095 85.5877 19.0568C85.3604 19.1089 85.0763 19.1373 84.7354 19.142C84.1767 19.1515 83.6559 19.0521 83.1729 18.8438C82.69 18.6354 82.2994 18.3134 82.0011 17.8778C81.7028 17.4422 81.5536 16.8954 81.5536 16.2372V5.47727ZM92.7415 19.2202C91.6856 19.2202 90.7765 18.9811 90.0142 18.5028C89.2566 18.0199 88.6742 17.3546 88.267 16.5071C87.8598 15.6596 87.6562 14.6889 87.6562 13.5952C87.6562 12.4872 87.8646 11.5095 88.2812 10.6619C88.6979 9.80966 89.285 9.14441 90.0426 8.66619C90.8002 8.18797 91.6927 7.94886 92.7202 7.94886C93.5488 7.94886 94.2874 8.10275 94.9361 8.41051C95.5848 8.71354 96.108 9.13968 96.5057 9.68892C96.9081 10.2382 97.1473 10.8797 97.223 11.6136H95.1562C95.0426 11.1023 94.7822 10.6619 94.375 10.2926C93.9725 9.9233 93.4328 9.73864 92.7557 9.73864C92.1638 9.73864 91.6454 9.89489 91.2003 10.2074C90.7599 10.5152 90.4167 10.9555 90.1705 11.5284C89.9242 12.0966 89.8011 12.7689 89.8011 13.5455C89.8011 14.3409 89.9219 15.0275 90.1634 15.6051C90.4048 16.1828 90.7457 16.6302 91.1861 16.9474C91.6312 17.2647 92.1544 17.4233 92.7557 17.4233C93.1581 17.4233 93.5227 17.3499 93.8494 17.2031C94.1809 17.0516 94.4579 16.8362 94.6804 16.5568C94.9077 16.2775 95.0663 15.9413 95.1562 15.5483H97.223C97.1473 16.2538 96.9176 16.8835 96.5341 17.4375C96.1506 17.9915 95.6368 18.4271 94.9929 18.7443C94.3537 19.0616 93.6032 19.2202 92.7415 19.2202ZM101.618 12.5227V19H99.494V4.45455H101.589V9.86648H101.724C101.98 9.27936 102.37 8.81297 102.896 8.46733C103.422 8.12169 104.108 7.94886 104.956 7.94886C105.704 7.94886 106.357 8.10275 106.916 8.41051C107.479 8.71828 107.915 9.17756 108.223 9.78835C108.535 10.3944 108.691 11.152 108.691 12.0611V19H106.568V12.3168C106.568 11.5166 106.362 10.8963 105.95 10.456C105.538 10.0109 104.965 9.78835 104.231 9.78835C103.729 9.78835 103.279 9.89489 102.882 10.108C102.489 10.321 102.179 10.6335 101.951 11.0455C101.729 11.4527 101.618 11.9451 101.618 12.5227Z" fill="white"/>
<circle cx="114.5" cy="15.5" r="0.5" fill="white"/>
<circle cx="123.5" cy="15.5" r="0.5" fill="white"/>
</svg>
